<?xml version="1.0" encoding="utf-8"?>
<!-- Generator: Adobe Illustrator 28.1.0, SVG Export Plug-In . SVG Version: 6.00 Build 0)  -->
<svg version="1.1" xmlns="http://www.w3.org/2000/svg" xmlns:xlink="http://www.w3.org/1999/xlink" x="0px" y="0px"
	 viewBox="0 0 472.5 1207" style="enable-background:new 0 0 472.5 1207;" xml:space="preserve">
<style type="text/css">
	.st0{display:none;}
	.st1{fill:#F6F6F6;}
</style>
<g id="Guides_For_Artboard" class="st0">
</g>
<g id="Layer_1">
	<g>
		<g>
			<path class="st1" d="M184.9,339.8c-1.5-8.2-3.4-18.9-9.6-25.1c-0.1-0.1-0.3-0.3-0.4-0.4c-0.2-0.2-0.4-0.3-0.6-0.4
				c-2.2-1.6-4.9-2.3-7.6-2.9c-4.5-1-9.1-1.4-13.6-1.8c-11.3-1-22.7-1.1-34-0.8c-8.2,0.2-17.2,0.2-25.1,2.5
				c-6.9,2.1-8.3,12.5-9.7,18.4c-2.7,11.9-4.2,24.6-2.5,36.8c0.6,4.4,1.9,9.3,5,12.6c2.1,2.3,5.4,3.4,8.2,4.3
				c9.2,2.9,19.3,3.4,28.9,3.9c11.3,0.6,22.6,0.5,33.8-0.1c7.4-0.3,15-0.7,22.2-2.2c6.3-1.3,6.9-7.1,7.2-12.7
				C187.9,361.2,186.7,350.2,184.9,339.8z M99.9,357.8c0.5-0.7,1.1-1,1.8-1c4.4,0,11.3,12.9,16.1,12.9c0.7,0,1.3-0.2,1.9-0.8
				c4.9-4.8-24.4-28.3-13.8-33c0.7-0.3,1.3-0.4,1.9-0.4c9,0,13.8,29.2,20,29.2c0.2,0,0.4,0,0.7-0.1c7-2.3-6.4-34.8,3.9-34.8
				c13.1,0-0.5,33.8,6.6,35.1c0.2,0,0.4,0.1,0.6,0.1c7.9,0,4.5-33.8,12.9-33.8c0.5,0,1.1,0.1,1.8,0.4c12.2,5.5-8,30.8-2.8,35.6
				c0.8,0.7,1.5,1.1,2.2,1.1c5.1,0,6.9-19.6,12.7-19.6c0.4,0,0.7,0.1,1.1,0.2c9.9,4.1-11.6,22.3-13.6,32c-4.6,0.2-9.2,0.2-13.9,0.2
				c-7.6,0-15.2-0.1-22.8-0.8C113.7,373.8,94.5,364.5,99.9,357.8z M180.1,378.3C180.1,378.3,180.1,378.3,180.1,378.3
				C180.2,378.3,180.1,378.3,180.1,378.3C180.1,378.3,180.1,378.3,180.1,378.3z M180.7,375.9c-0.1,0.7-0.3,1.3-0.5,2
				c0,0-0.1,0.3-0.2,0.4c-0.3,0.1-0.6,0.2-0.9,0.3c-2.9,0.7-5.7,1-8.6,1.2c-3.8,0.4-7.6,0.6-11.4,0.8c1.2-2.8,4.4-7.2,6.8-10.6
				c5.6-7.6,10.4-14.2,8.7-20.2c-0.7-2.6-2.7-4.7-5.4-5.9c-1-0.4-2.1-0.6-3.1-0.6c-1.4,0-2.6,0.3-3.7,0.9c0.3-1.1,0.5-2.2,0.6-3.2
				c1.2-9.2-3.7-12.9-6.8-14.3c-1.3-0.6-2.6-0.9-3.9-0.9c-5.4,0-8,4.7-9.3,8.8c-0.5-2.7-1.4-5-3-6.9c-1.9-2.2-4.6-3.3-7.7-3.3
				c-2.6,0-4.9,1-6.5,2.9c-3.9,4.6-2.8,12.5-1.4,21.6c0.1,0.4,0.1,0.8,0.2,1.3c-0.1-0.1-0.1-0.2-0.2-0.4
				c-4.1-9.7-8.3-19.7-16.6-19.7c-1.3,0-2.7,0.3-4,0.9c-2.6,1.2-4.5,3.2-5.1,5.8c-1.1,4.5,1.5,9.6,5.3,14.9
				c-0.7-0.2-1.5-0.3-2.3-0.3c-2.3,0-4.3,1-5.8,2.9c-1.8,2.2-2.4,4.8-1.9,7.5c0.4,1.9,1.3,3.8,2.8,5.9c2.3,2.9,5.6,5.7,8.8,8.3
				c1.1,0.9,2.7,2.2,4,3.4c-0.9-0.1-1.7-0.2-2.6-0.3c-4-0.6-8.1-1.4-12-2.7c-1.1-0.4-2.3-1-3.3-1.7c-0.1-0.1-0.4-0.3-0.7-0.6
				c0.3,0.3-0.5-0.7-0.5-0.7c-0.4-0.6-0.7-1.2-1-1.8c-2.2-4.7-2.4-10.6-2.4-15.7c0-6.3,0.7-12.7,1.8-18.9c0.9-5.3,2.1-10.6,3.9-15.6
				c0.5-1.4,1.1-2.9,1.8-4.2c0.5-0.8,0-0.4,0.8-0.7c4.7-1.6,10-1.7,14.9-2c8-0.5,16-0.6,24-0.5c7.9,0.1,15.8,0.5,23.6,1.4
				c2.9,0.3,5.7,0.8,8.5,1.4c1.1,0.3,2.1,0.6,3.1,0.9c0.4,0.2,0,0,0.6,0.3c0.3,0.2,0.4,0.2,0.5,0.3c0,0,0,0,0,0
				c2.9,2.7,4.3,6.8,5.4,10.5c1.8,5.4,2.8,11.1,3.7,16.7C181.3,355.3,182.6,366.2,180.7,375.9z"/>
			<path class="st1" d="M134.3,371.1c-1.8,0-3.2,1.4-3.2,3.2c0,1.8,1.4,3.2,3.2,3.2c1.8,0,3.2-1.4,3.2-3.2
				C137.4,372.6,136,371.1,134.3,371.1z"/>
		</g>
		<g>
			<path class="st1" d="M212.6,340.6c0.2-0.3,0.2-0.6,0.3-0.9c0.1-0.2,0-0.4,0.2-0.6c0.1-0.2,0.1-0.6,0.2-0.9c0.1-0.3,0-0.6,0.2-0.9
				c0.1-0.2,0-0.5,0.1-0.7c0.1-0.3,0.2-0.6,0.2-0.9c0.4-0.5,0.4-1.2,0.6-1.9c0.3-0.6,0.4-1.4,0.7-2.1c0-0.3,0.2-0.6,0.2-0.9
				c0-0.2,0.3-0.8,0.2-0.9c0-0.1,0.1-0.5,0.2-0.6c0.1-0.1,0.1-0.3,0.2-0.5c0-0.4,0.2-0.7,0.3-1.1c0.1-0.3,0.2-0.8,0.4-1.1
				c0.1-0.2,0.2-0.5,0.2-0.7c0-0.3,0.1-0.7,0.2-1c0-0.2,0.1-0.5,0.1-0.8c0.1-0.4,0.2-0.7,0.3-1.1c0.1-0.7,0.4-1.4,0.6-2.2
				c0-0.3,0-0.5,0.1-0.8c0.1-0.4,0.2-0.8,0.2-1.1c0.3-0.6,0.3-1.3,0.6-1.9c0-0.7,0.2-1.6,0.5-2.2c0.2-0.4,0.4-1.1,0.4-1.6
				c0.2-0.3,0.2-0.6,0.3-1c0,0,0.2-0.3,0.1-0.3c0,0-0.1,0-0.1-0.1c0.2,0.1,0.2,0,0.4-0.1c0.2,0.4,0.2-0.3,0.2-0.2
				c0.1-0.1,0.2,0.2,0.3,0.2c0.2-0.1,0.5,0,0.7,0.1c0.3,0,1.4-0.1,1.6,0.1c0-0.1,0.1,0,0.1,0c0.1,0,0-0.2,0.2-0.1
				c0,0.1,0.2,0,0.2,0.1c-0.1,0.3,0.2,0,0.2,0c0,0.3,0.2,0,0.3,0.2c0.2,0.3,0.2-0.2,0.3-0.2c0.2,0.1,0.1,0.3,0.4,0.3
				c0.1,0,0.3,0,0.5,0c0.3,0.1,0.8,0,1.2-0.1c-0.1-0.2-0.4,0-0.6-0.2c0.1,0,0.5-0.1,0.6,0c0.1,0.2,0.2,0.1,0.4,0.1
				c0.1,0,0.1,0,0.2-0.1c0.1,0.1,0.3,0,0.5,0c0.1,0,0.6,0.1,0.6,0c0,0,0.2,0.3,0.3,0.3c0,0.1,0,0.2,0,0.3c0,0.2,0,0.1,0.1,0.3
				c0.2,0.4,0.3,0.8,0.4,1.2c0.1,0.2,0,0.4,0.1,0.6c0.1,0.1,0.4,0.5,0.2,0.7c0.2,0.1,0.3,1,0.4,1.1c0.1,0.5,0.2,1,0.4,1.5
				c0,0.1,0.2,0.5,0,0.6c0.2,0.2,0.2,0.5,0.2,0.8c0.1,0.2,0.2,0.4,0.3,0.7c0.1,0.3,0.3,0.5,0.3,0.9c0,0.5,0.2,1.1,0.3,1.6
				c0.1,0.5,0.3,1.1,0.5,1.6c0,0.3,0.2,0.5,0.2,0.8c0,0.3,0,0.6,0.1,0.9c0.1,0.7,0.3,1.3,0.5,2c0.1,0.4,0.1,0.9,0.2,1.2
				c0.1,0.3,0.6,1.2,0.4,1.4c0.4,0,0.4,1.5,0.4,1.8c0.1,0.5,0.3,1.3,0.6,1.7c0.1,0.2,0.2,0.6,0.2,0.9c0,0.3,0.1,0.5,0.1,0.8
				c0,0.3,0.1,0.6,0.2,0.8c0.1,0.2,0.3,0.7,0.2,1c-0.1,0.2,0.2,0.7,0.2,0.9c0,0.3,0.1,0.6,0.3,0.9c0,0.2-0.1,0,0,0.3
				c0.1,0.2,0.2,0.3,0.2,0.5c0.1,0.4,0.2,0.7,0.3,1.1c0.1,0.3,0.2,0.6,0.3,0.9c0,0.1,0.1,0.2,0.2,0.3c0,0.2-0.1,0.2-0.1,0.3
				c-0.1,0.3-0.5,0-0.7-0.1c-0.3-0.1-0.6-0.1-0.9-0.1c-0.6-0.4-1.1,0-1.8-0.3c-0.5,0.2-1.6,0.3-2.1,0.1c-0.3-0.1-0.8,0-1.1,0
				c-0.2,0-0.9,0-1-0.2c-0.1-0.3-0.1-0.7-0.2-1c0-0.4-0.2-0.9-0.3-1.2c-0.2-0.4-0.4-0.8-0.4-1.2c0-0.3-0.2-0.7-0.2-1
				c0-0.2-0.1-0.6-0.1-0.8c-0.2-0.1-0.1-0.6-0.2-0.7c-0.1-0.2-0.2-0.6-0.2-0.9c-0.1-0.3-0.1-0.8-0.2-1.1c-0.2-0.8-0.6-1.7-0.6-2.6
				c0-0.6-0.3-1.1-0.4-1.6c0-0.2,0-0.5,0-0.8c-0.1-0.1-0.3-0.5-0.3-0.6c-0.2-1.1-0.5-2.1-0.8-3.2c-0.2-1-0.6-2-0.6-3
				c0-0.1-0.1-0.3-0.1-0.4c0-0.2,0-0.5,0-0.7c0-0.4-0.3-0.8-0.2-1.2c0,0.3-0.2,0.6-0.3,0.9c-0.1,0.3-0.2,0.2-0.2,0.5
				c0,0.2,0,0.7-0.1,0.9c-0.1,0.3-0.1,0.7-0.2,1c0,0.4-0.1,0.7-0.3,1c0,0.3-0.1,0.5-0.2,0.8c-0.2,0.7-0.4,1.4-0.6,2
				c-0.1,0.3-0.2,0.5-0.3,0.8c0,0.2-0.2,0.4-0.1,0.6c-0.5,0.5-0.6,1.4-0.9,2.1c-0.2,0.5-0.3,1.1-0.5,1.6c-0.1,0.4-0.2,0.7-0.3,1.1
				c-0.1,0.3-0.2,0.7-0.3,1.1c-0.1,0.6-0.2,1.3-0.6,1.9c0,0.4-0.1,1.1-0.3,1.4c-0.3,0.6-0.2,1.4-0.4,2.1c-0.2,0.6-0.3,1.4-0.9,1.7
				c-0.7-0.1-1.5-0.2-2.2,0c-0.7-0.1-1.4,0-2.1,0.1c-0.2,0-0.4,0.1-0.7,0.1c-0.3,0-0.5,0.1-0.7,0.1c-0.3-0.1-0.4-0.3-0.3-0.6
				C212.7,341.1,212.6,340.9,212.6,340.6z"/>
			<path class="st1" d="M261.6,311.9l0.2,1.8c-0.1,0-0.2,4.9-0.3,4.9c-0.1,0-0.6-0.1-0.7-0.1c-0.3,0-0.7,0-1.1,0
				c-0.2,0-0.5-0.1-0.8-0.1c-0.2,0-1.1,0.1-1.1-0.2c-0.2,0.1-1.3,0.1-1.4-0.1c-0.7,0.2-1.5,0.2-2.2,0.1c-0.1,0-0.3,0-0.4-0.1
				c-0.2,0-0.4,0-0.5,0c-0.3,0-0.6,0-0.9,0c-0.7,0-1.3,0-2.1,0c-0.3,0-0.7,0-1.1,0c-0.2,0-0.4,0-0.5-0.1c-0.1,0-0.2,0.1-0.3,0
				c-0.2,0-0.8-0.1-0.9,0c-0.1,0.1-0.3,0-0.4,0c-0.2,0.2-0.1,0.5-0.1,0.8c0,0.2,0,0.2,0.1,0.4c0,0.4,0,0.8,0.1,1.2
				c0,0.1,0,0.4,0.1,0.6c0.5,0.4,1.2,0.2,1.8,0.1c0.7,0,1.3-0.1,2-0.1c0.3,0.1,0.8,0.1,1.1,0.1c0.3,0,0.6,0,0.9,0
				c0.1,0,0.5,0,0.5,0.1l0.2,1.4l-0.2,0.9l0.2,1l-0.3,1.8l0.1,1.9c-0.3,0-0.6,0.1-0.9,0.1c-0.2,0-0.5,0-0.8,0.1
				c-0.3,0-0.6,0-0.9,0.1c-0.3-0.1-0.6,0.1-0.9,0c-0.1,0.1-1.1,0.2-1.1,0c-0.3,0.2-1,0-1.3,0c-0.1,0-1,0-1,0.1
				c-0.1,0.2-0.1,0.6-0.1,0.8c0,0.3,0.1,0.9,0,1.2c0,0.4-0.1,0.9-0.1,1.3c0,0.4,0.1,0.7,0,1.1c0,0.3-0.1,0.8,0,1.1
				c0.1,0.3,0.1,0.8,0.1,1.1c0,0.3,0,1.3,0.5,1.2c0.1,0,0.2,0.1,0.4,0.1c0.1,0,0.3,0,0.5,0.1c0.2,0.1,1,0.1,1.3,0.1
				c0.2,0,0.5,0,0.7,0c0.2,0,0.4,0,0.6,0c0.9,0.1,1.9,0,2.8-0.2c0.2,0,0.5-0.1,0.8,0c0.2,0,0.4,0.2,0.6,0.1c0.3,0,0.3,0,0.5,0.2
				c0.2-0.3,1.6,0.2,2,0.2c0.6,0,1.4,0.1,1.8-0.2c0.3,0.1,0.9,0,1.2-0.1c0.3,0.1,0.6,0.1,0.9,0.2c0.2,0,0.5,0.3,0.7,0.4l-0.2,2.6
				c0.2,0.7,0.1,3.2-0.4,3.1c-0.2,0-1.5-0.1-1.7-0.1c-0.3,0-0.6-0.2-0.9-0.2c-0.4,0-0.8,0-1.2,0.1c-0.3,0-0.7,0-1.1,0
				c-0.4,0-0.8,0-1.1,0c-0.3,0-0.6,0-0.9,0c-0.4,0-0.8-0.1-1.2,0c-0.5,0-0.9,0-1.3,0c-0.4,0-0.7-0.1-1.1,0c-0.8,0.1-1.5,0.1-2.3,0.2
				c-0.4,0-0.8,0-1.2,0c-0.3,0-0.4,0-0.7,0c-0.3,0.1-0.6,0-1,0c-0.3,0-0.7,0-1.1,0c-0.4,0-0.9,0-1.3,0c-0.4,0-0.8-0.1-1.1-0.1
				c-0.3,0-0.6,0-0.9,0c-0.2,0-0.1,0-0.3,0c-0.1,0-0.2,0-0.3,0.1c-0.1-0.2-0.4-0.2-0.6-0.3c0-0.3,0-0.6,0-0.9c0-0.6,0-1.1,0-1.8
				c0-0.6,0.1-1.2,0.1-1.9c0-0.6,0-1.2,0-1.8c0-0.7,0.1-1.3,0-2c0-0.6,0.2-1.1,0.2-1.8c0-0.6-0.1-1.3,0-1.9c0.1-0.6,0-1.2,0-1.8
				c-0.1-0.7,0-1.3,0.1-2.1c0-0.6,0-1.2,0-1.9c0-0.1,0.1-0.4,0.1-0.5c0,0-0.1,0-0.1-0.1c0-0.1,0-0.4,0-0.5c0-0.6,0.1-1.1,0.1-1.8
				c0-0.6,0.1-1.3,0-2c0.1-0.5,0.2-1.2,0-1.7c-0.1-0.4,0-1,0-1.4c0-0.4,0.1-0.9,0.1-1.2c0-0.2,0-0.7,0-1c0-0.4-0.2-1,0-1.4
				c0.1-0.2,0-0.7,0-1c0-0.1-0.1-0.2,0-0.4c0,0,0.1-0.1,0.1-0.2c0.7-0.1,1.3,0,2,0c0.1,0,0.3-0.1,0.5,0c0.1,0,0.2,0.1,0.4,0.1
				c0.2,0,0.4-0.2,0.5-0.1c0.4,0.1,1,0,1.3,0c0.7-0.1,1.4,0,2.1,0c0.3,0,0.6,0,0.9-0.1c0.1,0.1,0.5,0.1,0.6,0.1
				c0.4-0.1,1.1,0.2,1.4,0c0.1,0,0.5,0,0.7,0c0.2,0,0.5,0,0.7,0.1c0.1-0.1,0.2-0.1,0.4,0c0.2-0.1,0.4-0.1,0.6-0.1
				c0.2,0,0.3,0,0.5-0.1c0.1,0,0.3,0,0.4,0c0.3,0,0.7,0,1,0c0.2,0,0.4,0,0.7,0c0.1,0,0.7,0,0.7,0c0.2-0.1,0.4-0.1,0.7-0.1
				c0.2,0,0.2,0.1,0.4,0.1c0.1,0,0.2,0,0.3,0c0.1,0,0.7,0,0.8,0c0.2,0.1,0.7,0.1,1.1,0.1c0.5,0,1.1,0,1.5,0L261.6,311.9z"/>
			<path class="st1" d="M285,310.1c0.3,0.1,0.3,0.4,0.1,0.7c-0.1,0.4-0.2,0.6-0.1,1c0,0.4,0.1,0.8,0,1.1c0,0.5-0.1,0.8,0,1.2
				c0,0.3-0.1,0.4,0,0.7c0.2,0.2,0,0.8,0,1.1c0,0.2-0.1,0.2-0.1,0.4c0,0.1,0.1,0.3,0,0.4c-0.1,0-0.2,0.2-0.3,0.1
				c-0.2-0.1-0.3-0.1-0.5-0.1c-0.1,0-0.2,0-0.4,0c-0.2-0.1-0.3,0-0.4,0c-0.2,0-0.4,0-0.6,0c-0.1,0-0.3,0-0.4,0.1
				c-0.3,0-1.4-0.1-1.9,0c-0.1,0-0.3,0-0.4,0.1c-0.2-0.1-0.3-0.1-0.4-0.1c-0.2,0-0.6,0-0.8,0.2c-0.1,0.2-0.1,0.8-0.1,1
				c0,0.4,0.1,0.8,0,1.2c-0.1,0.5-0.2,1.3-0.1,1.9c0,0.4,0.1,0.7,0.1,1c0,0.4,0,0.8,0,1.1c0,0.5,0.1,0.8,0,1.3c0,0.4,0,0.8,0,1.2
				c0,0.4,0,0.8,0.1,1.2c-0.2,0.2-0.1,0.6-0.1,0.8c0,1.4-0.1,2.9-0.1,4.3c0,1.6,0.2,3.2,0.1,4.9c0,0.4,0,0.7,0,1.1c0,0.3,0,0.6,0,1
				c0,0.7-0.1,1.3,0,2c0,0.4-0.1,0.9,0,1.3c0,0.1,0,0.5,0,0.7c0,0.2-1,0.1-1.1,0c-0.2,0-1.4,0.1-1.5-0.1c-0.1-0.1-0.3,0.2-0.4,0
				c-0.1,0-0.5,0.1-0.4,0c0,0,0,0,0,0c0.1-0.1-0.8-0.3-0.8-0.3c-0.4-0.1-0.7-0.1-1.1,0c-0.2,0-0.4-0.1-0.6-0.1c-0.2,0-0.4,0-0.7,0
				c-0.4,0-0.2-0.5-0.2-0.8c-0.2-0.6-0.3-1.6-0.2-2.2c0-0.4-0.2-0.9-0.2-1.4c0-0.5,0-1,0-1.4c-0.1-0.9,0-1.8,0-2.7
				c0-0.7-0.1-1.4,0-2c0-0.7,0.1-1.3,0.1-2c0-0.3,0-0.7,0-1c0-0.1,0-0.4-0.1-0.5c-0.1-0.1,0-0.1,0-0.3c-0.1-0.7-0.1-1.4-0.1-2.1
				c0-0.4,0-0.7,0-1c0-0.3-0.1-0.6-0.1-1c0-0.9-0.1-1.7-0.2-2.5c0-0.7,0-1.4-0.2-2c0-0.8,0-1.7,0-2.5c0-0.2,0.1-0.4-0.2-0.5
				c-0.1,0-0.3,0-0.4,0c-0.2,0-0.4,0-0.5,0c-0.1,0-0.2,0.1-0.2,0c-0.1,0-0.2,0-0.4,0c-0.4,0-1.8,0.1-2.1,0.2c-0.3,0-0.5,0.1-0.8,0.1
				c-0.3,0-0.6,0-0.9,0c-0.4,0-0.8-0.1-1.1-0.3c0-0.1,0-0.2-0.1-0.3c0-0.1,0-0.2,0-0.3c0.1-0.1,0-1,0-1.1c-0.2-0.5-0.2-1-0.2-1.5
				c-0.1-0.8-0.2-1.6-0.2-2.3c0-0.2,0.2-0.1,0.3-0.1c0-0.1,0-0.3,0-0.4c0.3-0.1,0.6-0.1,0.9-0.1c0.3,0,0.6-0.1,0.9-0.1
				c0.4,0,0.7,0,1,0c0.4,0,1.8-0.2,2.2-0.2c0.2,0,0.3,0,0.5,0c0.2,0,0.3-0.1,0.5-0.1c0.7,0,1.5,0,2.2,0c2.5,0,4.9-0.2,7.4-0.1
				c1.2,0,2.4,0,2.6,0.1c0.1,0,0.2-0.1,0.2,0c0.6,0.1,1.3,0.2,2,0.1C284.4,310.2,284.7,310,285,310.1z"/>
			<g>
				<path class="st1" d="M288.7,311.5c-0.1-0.2-0.2-0.3-0.3-0.5c-0.2-0.2-0.1-0.2-0.2-0.4c-0.2-0.4-0.2-0.5,0-0.8c0.1,0,0.2,0,0.3,0
					c0.2,0,0.2,0,0.3,0c0.3,0,0.6,0,0.9-0.1c0.3-0.1,0.6,0,0.9-0.1c0.3,0,0.6-0.1,0.9-0.1c0.2,0.1,0.3,0.1,0.4,0.1
					c0.1-0.1,0.2-0.1,0.2-0.1c0.3,0,0.6,0.1,0.8,0c0.4-0.1,0.7-0.1,1-0.1c0.8,0.2,0.7,0.8,1.1,1.3c0.2,0.3,0.1,0.5,0.3,0.8
					c0.2,0.2,0.1,0.3,0.2,0.5c0.4,0.8,0.7,1.5,0.9,2.3c0.1,0.2,0.4,0.6,0.4,0.7c0,0.3,0.1,0.5,0.2,0.8c0.3,0.7,0.6,1.4,0.8,2.1
					c0.1,0.3,0.2,0.6,0.3,0.9c0.1,0.4,0.2,0.7,0.3,1c0.1,0.3,0.3,0.6,0.4,0.8c0.1,0.3,0.2,0.6,0.3,0.8c0,0.5,0.6,1,0.7,1.6
					c0.1,0.5,0.4,0.7,0.5,1.1c0.3,0.6,0.6,1.2,0.7,1.8c0.2,0.1,0.3-0.3,0.3-0.4c0.1-0.2,0.1-0.4,0.3-0.5c-0.2-0.2,0.3-1.2,0.4-1.2
					c0.1,0,0.2-0.4,0.2-0.5c0.1-0.1,0.1-0.2,0.1-0.3c0.1-0.1,0.2-0.1,0.2-0.2c0.1-0.4,0.2-0.7,0.4-1c0.1-0.2,0.4-0.8,0.3-1
					c0.3-0.1,0.5-0.8,0.6-1.1c0.1-0.3,0.3-0.5,0.3-0.8c0.2-0.4,0.3-1.1,0.5-1.4c0.1-0.2,0.2-1,0.5-1.1c-0.3-0.2,0.5-0.8,0.3-1
					c0.2-0.5,0.3-0.9,0.5-1.3c0.2-0.3,0.4-0.7,0.3-1c0.1,0,0.1,0,0.1,0c0.1,0,0-0.2-0.1-0.2c0.1-0.1,0.2-0.2,0.2-0.3
					c0-0.1,0-0.2,0-0.3c0-0.1,0.1-0.3,0.2-0.4c0-0.1,0.1-0.2,0.2-0.2c0-0.1,0-0.3,0-0.4c0.1-0.5,0.4-1.1,0.7-1.5
					c0.2-0.2,0.1-0.7,0.4-0.8c-0.3-0.7,0.9-0.6,1.3-0.6c0.2,0,0.7-0.2,0.9-0.2c0.1,0,0.5-0.1,0.7-0.1c0.2-0.1,0.5-0.1,0.7,0
					c0.2,0,0.5,0,0.6,0.1c0.2-0.1,0.5-0.1,0.7-0.1c0.3,0.1,1.2,0.4,1.4,0.3c0.3-0.1,0.6-0.2,0.8,0.1c0.4,0.4-0.1,0.5-0.3,0.6
					c0,0.2-0.3,0.7-0.4,0.9c-0.1,0.2-0.3,0.7-0.3,0.9c0,0.2-0.2,0.4-0.2,0.5c0,0.1,0,0.2,0,0.3c-0.2,0.2-0.1,0.6-0.3,0.8
					c-0.2,0.1-0.3,0.8-0.4,1c-0.1,0.2-0.5,1.6-0.6,1.6c0,0.2,0.1,0.1,0,0.3c-0.1,0.1-0.1,0.3-0.1,0.4c-0.1,0.3-0.3,0.4-0.3,0.7
					c0.1,0.4,0,0-0.1,0.2c-0.1,0.3-0.1,0.6-0.2,0.8c0,0.1,0,0.2-0.1,0.3c-0.1,0-0.2,0.1-0.1,0.2c0.1,0.2,0,0.2-0.1,0.4
					c-0.2,0.4-0.3,0.9-0.5,1.3c-0.1,0.3-0.2,0.4-0.2,0.7c0,0.2-0.1,0.3-0.1,0.4c-0.1,0.3-0.2,0.7-0.3,0.9c-0.2,0.3-0.4,0.8-0.4,1
					c0,0.3-0.2,0.8-0.4,1c-0.2,0.2-0.3,0.7-0.4,0.9c-0.1,0.3-0.1,0.3-0.2,0.6c-0.1,0.1-0.1,0.3-0.2,0.4c-0.2,0.3-0.3,0.4-0.4,0.8
					c-0.1,0.3-0.2,0.5-0.2,0.7c0,0.2-0.2,0.2-0.3,0.3c-0.1,0.3-0.4,0.9-0.4,1c0,0.2-0.4,0.9-0.5,0.9c0.1,0.3-0.2,0.6-0.3,0.9
					c0,0.1-0.1,0.4-0.1,0.5c-0.2,0.2-0.1-0.2-0.2,0.2c-0.1,0.4-0.3,0.6-0.4,0.9c-0.1,0.4-0.1,0.7-0.4,1c-0.1,0.1-0.2,0.5-0.2,0.6
					c-0.1,0.3-0.2,0.8-0.4,1c-0.2,0.3-0.2,0.7-0.3,1c-0.1,0.2-0.1,0.8-0.4,0.8c0.1,0.3-0.1,0.5-0.2,0.7c-0.2,0.3-0.2,0.6-0.4,0.8
					c-0.1,0.1-0.3,0.4-0.2,0.6c-0.3,0.1-0.3,0.5-0.5,0.6c-0.1,0.4-0.3,0.5-0.5,0.7c-0.1,0.2-0.3,0.3-0.4,0.4
					c-0.1,0.2-0.2,0.3-0.3,0.4c-0.3,0.2-0.6,0.4-0.8,0.6c-0.1,0.1-0.2,0.3-0.3,0.4c-0.2,0.1-0.3,0.2-0.4,0.3c-0.4,0.1-0.7,0.4-1,0.6
					c-0.4,0.1-0.8,0.2-1.1,0.5c-0.3,0.3-0.8,0.2-1.1,0.2c-0.2,0.1-0.4,0.1-0.5,0.2c-0.2-0.1-0.3-0.1-0.4-0.1c-0.3,0-0.7,0.1-1,0.1
					c-0.4,0-0.8,0-1.2,0.2c-0.4,0-0.7-0.1-1.1-0.1c-0.4,0-0.7,0-1.1-0.1c-0.1,0-0.2-0.2-0.3-0.7c0-0.2,0-0.4,0-0.6
					c0-0.3,0-0.5-0.1-0.8c0-0.2-0.2-0.5-0.2-0.7c0-0.3,0-0.6,0-0.9c0-0.2,0-0.6,0-0.8c0-0.3-0.2-0.5-0.2-0.7c0-0.6,0-0.9,0.1-0.9
					c0.5,0.1,0.9,0.1,1.4,0.1c0.8,0,1.7-0.2,2.4-0.4c0.4-0.1,0.8-0.2,1.1-0.3c0.1,0,0.3-0.3,0.4-0.3c0.2-0.1,0.6-0.3,0.6-0.5
					c0.1-0.1,0.1,0,0.2,0c0.1-0.1,0.1-0.3,0.2-0.4c0.6-0.2-0.3-0.9-0.3-1.1c-0.2-0.2-0.1-0.4-0.3-0.6c-0.1-0.1-0.3-0.1-0.4-0.1
					c-0.2,0-0.3-0.6-0.5-0.8c0.1-0.3-0.2-0.5-0.3-0.8c-0.2-0.3-0.3-0.7-0.4-1.1c-0.1-0.3-0.8-1.3-0.6-1.6c-0.2-0.2-0.3-0.6-0.4-0.8
					c-0.2-0.3-0.3-0.7-0.4-1c-0.2-0.7-0.6-1.2-0.7-1.9c-0.2-0.7-0.5-1.3-0.6-2c-0.1,0-1-3.3-1.2-3.7c-0.1-0.3-0.3-0.6-0.3-0.9
					c0-0.2-0.1-0.1-0.1-0.3c-0.1-0.1-0.1-0.2-0.2-0.4c-0.1-0.6-0.3-1.1-0.5-1.7c-0.3-0.8-0.5-1.6-0.9-2.3c-0.2-0.4-0.3-0.7-0.5-1.1
					c-0.1-0.2-0.3-0.6-0.3-0.9C288.9,312.2,288.8,311.9,288.7,311.5z"/>
			</g>
			<path class="st1" d="M339.7,308.8l-0.1-0.4h-0.5c0,0-0.2,0-0.3,0c-0.2,0-0.4,0-0.6,0h-0.4l-1.1-0.1l0.1,0.1c-0.1,0-0.3,0-0.5,0
				c-0.1,0-0.2,0-0.2-0.1l-0.2-0.1h-0.2c-0.2,0-0.3,0.1-0.4,0.1c-0.2,0-0.5,0-0.7,0c-0.1,0-0.2,0-0.3,0c-0.1,0-0.1,0-0.2,0
				c-0.3,0-0.6-0.1-1-0.1c-0.5,0-0.8,0.1-0.9,0.2c-0.4,0.3-0.6,0.6-0.5,1.1c0,0.1,0,0.2,0,0.2c0,0.3,0,0.5,0,0.8
				c0,0.1-0.1,0.2-0.1,0.3c0,0.2-0.1,0.4-0.2,0.6c-0.1,0.3-0.3,0.6-0.5,1c-0.2,0.3-0.4,0.6-0.6,0.9c-0.2,0.3-0.5,0.5-0.8,0.8
				c-0.1,0.1-0.3,0.3-0.5,0.4c-0.2,0.1-0.4,0.2-0.5,0.3c-0.2,0.2-0.5,0.3-0.7,0.5c-0.2,0.1-0.5,0.2-0.7,0.3c0,0-0.1,0-0.3,0l-0.2,0
				c-0.1,0-0.2,0-0.3,0c-0.1,0-0.2,0-0.4,0.1c-0.1,0-0.2,0-0.3,0c-0.1,0-0.2-0.1-0.3-0.1c-0.1,0-0.2-0.1-0.3-0.1l-0.2-0.1
				c-0.2-0.1-0.4-0.1-0.5-0.2c-0.2-0.1-0.5-0.2-0.7-0.4c-0.1-0.1-0.2-0.2-0.3-0.3c-0.1-0.1-0.2-0.2-0.3-0.3
				c-0.1-0.1-0.2-0.2-0.3-0.3c-0.1-0.1-0.2-0.2-0.3-0.3c-0.1-0.2-0.2-0.4-0.3-0.6l-0.1-0.2c-0.1-0.1-0.2-0.3-0.2-0.4
				c-0.1-0.2-0.2-0.3-0.2-0.5c0-0.1-0.1-0.3-0.1-0.5c0-0.2,0-0.3-0.1-0.5l-0.1-0.3c-0.1-0.2-0.1-0.4-0.1-0.7
				c-0.1-0.7-0.8-0.8-2.3-0.8c-2.8,0-3.1,0.4-3.2,0.5l-0.2,0.3l0,0.3c0,0.3,0.1,0.6,0.1,0.8l0,0.3c0,0.1,0,0.3,0,0.4
				c0,0.2,0,0.5,0.1,0.7c0.1,0.2,0.1,0.4,0.2,0.7c0.1,0.1,0.1,0.3,0.1,0.4l0.1,0.3c0.1,0.2,0.1,0.5,0.2,0.7c0.1,0.2,0.2,0.4,0.3,0.6
				c0.1,0.1,0.1,0.2,0.2,0.4c0.1,0.1,0.1,0.3,0.1,0.4c0.1,0.2,0.1,0.5,0.2,0.7c0.1,0.2,0.2,0.4,0.4,0.6c0.1,0.1,0.1,0.2,0.2,0.3
				c0.1,0.2,0.3,0.4,0.4,0.5c0.1,0.1,0.2,0.2,0.2,0.3c0,0.1,0.1,0.2,0.2,0.3c0.1,0.2,0.2,0.5,0.3,0.7c0.2,0.2,0.3,0.3,0.5,0.5
				c0.1,0.1,0.2,0.1,0.2,0.2c0.1,0.1,0.1,0.2,0.2,0.3c0.1,0.2,0.3,0.4,0.4,0.5c0.2,0.2,0.3,0.3,0.5,0.4c0.1,0.1,0.2,0.1,0.2,0.2
				c0.2,0.2,0.5,0.4,0.8,0.6c0.2,0.1,0.4,0.2,0.6,0.3l0.2,0.1c0.1,0,0.2,0.1,0.2,0.2c0.2,0.1,0.3,0.2,0.6,0.3
				c0.2,0.1,0.5,0.1,0.6,0.1c0.1,0,0.2,0,0.2,0c0.3,0.1,0.5,0.1,0.9,0.1c0.1,0,0.2,0,0.3,0c0.2,0,0.4,0.1,0.6,0.1
				c0.3,0,0.5-0.1,0.7-0.2c0.1,0,0.2-0.1,0.3-0.1l0.4,0c0.2,0,0.3,0,0.5-0.1c0.2-0.1,0.4-0.2,0.6-0.3c0.1-0.1,0.2-0.1,0.3-0.1
				l0.3-0.1c0.2-0.1,0.4-0.1,0.6-0.3c0.1,0,0.3-0.1,0.4-0.1c0.3-0.1,0.6-0.1,0.9-0.3c0.1-0.1,0.2-0.2,0.3-0.2c0,0.4,0,0.8,0,1.2
				c0,0.5,0,1,0,1.4l0.1,4c0,0.1,0,0.3-0.1,0.5l0,0.2c0,0.1-0.1,0.4,0.1,0.6l0,0c-0.1,0.2-0.1,0.4-0.1,0.5c0,0.1,0,0.2,0,0.3
				c-0.1,0.3-0.1,0.6,0,0.8c0,0.2,0,0.4-0.1,0.6c-0.1,0.5-0.1,1,0,1.5c0,0.3,0,0.7,0,0.9c0,0.2,0,0.4,0,0.5c0,0.2,0,0.3,0,0.4
				l-0.1,0.2l0.1,0.2c0,0.1,0,0.2,0,0.3c0,0.2,0,0.5,0.1,0.8c0,0.1,0,0.3,0,0.5c0,0.2,0,0.5,0,0.8c-0.2,0.4-0.1,1-0.1,1.4
				c0,0.1,0,0.3,0,0.4c0,0.3,0,0.6,0,0.9c0,0.5,0,0.9-0.1,1.4c-0.1,0.4-0.2,1,0.2,1.5l0.1,0.2l0.2,0.1c0.4,0.1,1,0.1,1.5,0l0.2,0
				c0.1,0,0.2,0,0.4,0c0.4,0,0.6,0.1,1.2-0.1c0.1,0,0.3,0,0.5,0c0.1,0,0.2,0,0.3,0c0.2,0,0.7,0.1,1.1,0.1c0.9,0,1.4-0.1,1.7-0.5
				c0.2-0.2,0.2-0.5,0.2-0.6c0-0.2,0-0.3-0.1-0.4l0,0c0.1-0.4,0.1-0.9,0.2-1.3c0-0.1,0-0.2,0.1-0.2c0.1-0.2,0.1-0.5,0.1-0.8
				c0.2-0.5,0-0.9,0-1.1c-0.1-0.3,0-0.6,0-1c0-0.3,0.1-0.7,0-1c-0.1-0.7,0-1.3,0-1.8c0-0.2,0-0.4,0-0.6c0-0.1,0-0.2,0-0.3
				c0.1-0.5,0-1-0.1-1.3c0-0.4,0-0.9,0.1-1.3c0-0.5,0.1-1,0.1-1.6c0-0.2,0-0.4,0-0.6c0-0.3,0.1-0.6,0-0.9c0-0.3,0-0.6,0-1
				c0-0.2,0-0.4,0-0.5c0-0.2,0-0.3,0-0.4c0-0.3,0-0.7,0-1c0-0.1,0-0.2,0-0.4c0-0.2,0-0.4,0-0.5c0-0.3,0-0.6,0-0.9
				c0.1-0.6,0.1-1.2-0.1-1.8c0.1-0.3,0.1-0.6,0.1-0.8c0-0.2,0-0.4,0-0.6c0.1-0.3,0.1-0.6,0.1-1v-0.9c0-0.4,0.1-0.7,0.1-1.1
				c0.1-0.5,0.1-1,0.1-1.5c0-0.5,0-1.1,0.1-1.7c0-0.5,0.1-1,0.1-1.5c0-0.4,0-0.8,0-1.2c0-0.4,0-0.8,0-1.2l0-0.3
				C339.9,309.8,339.9,309.3,339.7,308.8z"/>
			<path class="st1" d="M395.4,319.1c0-0.3-0.4-1.2-0.4-1.5l-0.2-0.3c-0.1-0.4-0.1-0.7-0.2-1.1c-0.1-0.4-0.2-0.7-0.3-1.1
				c-0.1-0.4-0.3-0.7-0.4-1.1c-0.2-0.3-0.4-0.6-0.6-1c-0.2-0.3-0.3-0.7-0.5-1c-0.2-0.3-0.6-0.5-0.8-0.8c-0.2-0.3-0.6-0.5-0.9-0.7
				c-0.3-0.3-0.5-0.6-0.8-0.8c-0.1-0.1-0.3-0.2-0.4-0.3c0,0-0.4-0.3-0.5-0.4c-0.3-0.2-0.6-0.4-1-0.6c-0.3-0.2-0.8-0.1-1.1-0.3
				c-0.4-0.1-0.7-0.4-1.1-0.4c-0.4-0.1-0.8-0.1-1.2-0.1c-0.4-0.1-0.8-0.2-1.1-0.2c-0.4,0-0.8,0.1-1.2,0.1c-0.1,0,0,0.1,0,0.1
				c-0.4,0-0.8,0-1.2,0.1c-0.4,0.1-0.8,0.2-1.1,0.3c-0.4,0.1-0.7,0.2-1.1,0.4c-0.4,0.1-0.8,0.2-1.1,0.3c-0.4,0.2-0.7,0.4-1,0.6
				c-0.3,0.2-0.7,0.3-1,0.6c-0.3,0.2-0.7,0.4-1,0.7c-0.3,0.2-0.5,0.6-0.8,0.9c-0.3,0.3-0.6,0.5-0.9,0.7c-0.3,0.3-0.4,0.6-0.7,0.9
				c-0.2,0.3-0.4,0.6-0.5,1c-0.2,0.3-0.4,0.6-0.6,0.9c-0.2,0.3-0.3,0.7-0.4,1c-0.1,0.3-0.3,0.7-0.4,1c-0.1,0.3-0.1,0.7-0.2,1
				c-0.1,0.3-0.1,0.7-0.2,1c0,0.3,0,0.7,0,1c0,0.3-0.1,0.7-0.1,1c0,0.3,0.2,0.7,0.2,1c0.1,0.3,0.1,0.7,0.1,1c0.1,0.3,0.2,0.6,0.4,1
				c0.1,0.3,0.3,0.6,0.4,0.9c0.1,0.3,0.2,0.7,0.4,1c0.2,0.3,0.4,0.6,0.6,0.8c0.2,0.3,0.4,0.6,0.6,0.9c0.2,0.3,0.5,0.5,0.8,0.7
				c0.2,0.3,0.4,0.6,0.6,0.9c0.3,0.2,0.5,0.4,0.8,0.7c0.3,0.2,0.6,0.4,0.9,0.6c0.3,0.2,0.5,0.6,0.8,0.8c0.3,0.2,0.6,0.3,0.9,0.4
				c0.3,0.2,0.6,0.4,0.9,0.5c0.3,0.1,0.6,0.2,1,0.3c0.3,0.1,0.6,0.2,1,0.3c0.2,0.1,0.4,0.1,0.7,0.1c0,0,0,0,0,0
				c0.1,0-0.1,0.2-0.2,0.2c-0.3,0.3-0.4,0.5-0.7,0.8c-0.1,0.1-0.1,0.2-0.1,0.3c-0.1,0.2-0.3,0.4-0.4,0.6c-0.5,0.6-0.8,1.2-1.2,1.7
				c-0.2,0.3-0.3,0.5-0.6,0.8c0,0.2-0.4,0.6-0.4,0.8c0,0.3-0.6,0.8-0.5,1.1c-0.5,0.2-0.7,1-0.9,1.2c-0.4,0.5-0.7,1.1-1.2,1.7
				c-0.2,0.2-0.4,0.5-0.3,0.7c0.4,0.1,0.9,0,1.4,0c0.4,0,0.8,0.1,1.2,0c0.5-0.2,0.8,0,1.2,0c0.3,0,2.2,0.2,2.5-0.4
				c0.1-0.1,0-0.1,0-0.2c0,0,0.3-0.3,0.2-0.3c0.4-0.5,0.7-0.9,1.1-1.3c0.3-0.3,0.7-0.7,0.8-1c0.4-0.3,0.5-0.6,0.6-0.8
				c0.2-0.6,1-1.4,1.4-2.1c0.4-0.6,0.9-1.3,1.4-2c0.3-0.3,0.4-0.6,0.6-0.9c0.4-0.4,0.6-0.8,0.7-1.2c0.3-0.6,0.8-1.2,1.3-1.7
				c0,0.2,0,0.3,0,0.5c-0.1,0.8,0,1.7,0,2.4c0,0.4,0,0.8-0.1,1.1c0.1,0.4,0,0.8,0,1.1c0.2,0.5-0.1,1.1,0.1,1.6
				c-0.3,0.2,0,1.4-0.1,1.7c0,0.8,0,1.6-0.1,2.3c0,0.3-0.1,0.7,0.1,1c0.4,0.1,0.9,0,1.3,0c0.3,0,0.8,0.1,1.1,0c0.3-0.2,0.7,0,1.1,0
				c0.3,0,2.1,0.2,2-0.4c0-0.1,0-0.1-0.1-0.2c0,0,0-0.3,0-0.3c0-0.5,0.1-0.9,0.2-1.3c0-0.3,0.2-0.7,0.1-1c0.1-0.3,0.1-0.6,0-0.9
				c-0.1-0.6,0-1.4,0-2.1c0-0.6,0-1.4,0-2c0-0.3,0-0.6,0-0.9c0-0.4,0-0.8,0-1.2c0-1,0.1-1.9,0.1-2.9c0-0.5,0.1-1,0-1.5
				c0-0.5,0-1.1,0-1.6c0-0.5,0-0.9,0-1.4c0-0.3,0-0.6,0-0.9c0-0.9,0.2-1.9,0-2.8c0.1-0.5,0-1.1,0.1-1.6
				C395.3,319.7,395.4,319.4,395.4,319.1z M380.8,327c-0.3-0.1-0.6-0.4-0.9-0.5c-0.3-0.2-0.7-0.3-0.9-0.5c-0.3-0.2-0.5-0.5-0.8-0.7
				c-0.3-0.3-0.6-0.5-0.8-0.7c-0.2-0.3-0.3-0.7-0.5-1c-0.2-0.3-0.4-0.6-0.5-0.9c-0.1-0.3-0.3-0.7-0.4-1c-0.1-0.3,0.1-0.7,0.1-1.1
				c0-0.4-0.1-0.7-0.1-1.1c0-0.4,0.2-0.7,0.3-1c0.1-0.4,0.2-0.7,0.3-1c0.2-0.3,0.3-0.6,0.5-0.9c0.2-0.3,0.4-0.6,0.7-0.9
				c0.3-0.3,0.6-0.5,0.9-0.7c0.3-0.2,0.5-0.5,0.9-0.7c0.3-0.2,0.7-0.4,1-0.5c0.4-0.1,0.7-0.2,1.1-0.3c0.4-0.1,0.7-0.3,1.1-0.3v0
				c0.4,0,0.8,0.1,1.1,0.1c0.4,0,0.8,0.1,1.1,0.2c0.4,0.1,0.7,0.2,1,0.4c0.3,0.2,0.6,0.5,0.9,0.7c0.3,0.2,0.6,0.4,0.9,0.7
				c0.3,0.3,0.4,0.6,0.6,0.9c0.2,0.3,0.3,0.7,0.5,1c0.2,0.3,0.4,0.6,0.5,1c0.1,0.3,0,0.7,0.1,1c0,0.2,0,0.4,0,0.6
				c0,0.1,0,0.3,0.1,0.5c0,0,0,0.1,0,0.1c0,0.4,0,0.8-0.1,1.1c-0.1,0.4-0.2,0.7-0.3,1.1c-0.1,0.4-0.3,0.7-0.4,1
				c-0.2,0.3-0.4,0.6-0.6,0.9c-0.2,0.3-0.4,0.6-0.7,0.9c-0.3,0.3-0.5,0.5-0.8,0.7c-0.3,0.2-0.6,0.4-0.9,0.6c-0.3,0.2-0.7,0.2-1,0.3
				c-0.3,0.1-0.6,0.3-1,0.3c-0.3,0-0.7,0-1,0c-0.3,0-0.7,0-1-0.1C381.4,327.2,381.1,327.1,380.8,327z"/>
			<path class="st1" d="M370.5,341.5c-0.2-0.1-0.3-0.5-0.3-0.7c-0.2-0.7-0.5-1.4-0.7-2.1c-0.1-0.5-0.3-1.1-0.5-1.6
				c0-0.2-0.1-0.3-0.1-0.4c0,0,0-0.1,0-0.1c-0.1-0.3-0.2-0.7-0.3-1c-0.1-0.3-0.2-0.7-0.4-1c-0.1-0.3-0.2-0.6-0.3-0.9
				c-0.1-0.3-0.2-0.6-0.3-0.9c-0.2-0.6-0.6-1.1-0.8-1.7c0-0.1,0-0.2-0.1-0.4c-0.1-0.2-0.2-0.3-0.2-0.5c-0.1-0.3-0.3-0.6-0.4-0.9
				c-0.1-0.2-0.2-0.6-0.3-0.8c0-0.1,0-0.3-0.1-0.4c-0.1-0.2-0.2-0.4-0.3-0.6c-0.1-0.3-0.1-0.7-0.2-1c-0.2-0.2-0.2-0.7-0.3-0.8
				c-0.1-0.1-0.1-0.2-0.1-0.4c-0.1-0.1-0.1-0.3-0.2-0.5c0-0.1-0.1-0.3-0.1-0.5c0-0.1,0-0.2-0.1-0.3c-0.3-0.7-0.7-1.3-1-1.9
				c-0.4-0.8-0.7-1.8-0.9-2.7c-0.2-0.6-0.5-1.2-0.7-1.8c-0.1-0.3-0.3-0.6-0.3-1c-0.3-0.3-0.3-0.6-0.4-1c-0.1-0.3-0.1-0.6-0.3-0.9
				c-0.1-0.3-0.2-0.7-0.4-1.1c-0.1-0.3-0.1-0.6-0.2-1c0-0.1-0.1-0.2-0.1-0.4c0-0.2,0-0.4-0.1-0.5c0-0.3-0.1-0.6-0.2-0.9
				c-0.1-0.3-0.2-0.6-0.3-0.9c-0.2-0.3-0.6-0.2-0.9-0.4c-0.3-0.2-0.8,0-1-0.2c-0.4-0.3-1.4,0-1.9,0c-0.8,0-1.6,0.2-2.4,0.3
				c-0.4,0-0.8,0.1-1.2,0.1c-0.3,0-0.5-0.2-0.8-0.2c-0.4,0-0.4,0.3-0.5,0.6c0,0.4-0.3,0.9-0.4,1.3c-0.1,0.3-0.2,0.7-0.4,1
				c-0.1,0.2-0.1,0.5-0.2,0.7c-0.3,0.6-0.5,1.2-0.6,1.8c-0.1,0.7-0.4,1.3-0.6,2c-0.2,0.7-0.3,1.5-0.7,2.2c-0.3,0.5-0.3,1.2-0.5,1.7
				c-0.2,0.7-0.5,1.5-0.6,2.2c-0.3,1.4-1.2,2.7-1.3,4.2c-0.3,0.6-0.5,1.2-0.7,1.9c-0.1,0.3-0.3,0.7-0.3,1.1c0,0.4-0.3,0.8-0.3,1.1
				c0,0.3-0.1,0.6-0.3,0.8c-0.1,0.2-0.1,0.5-0.2,0.8c-0.2,0.4-0.3,1-0.4,1.5c0,0.6-0.3,1.2-0.4,1.9c-0.1,0.5-0.2,0.9-0.3,1.4
				c0,0,0,0.1,0,0.2c0,0.1-0.1,0-0.1,0.1c-0.1,0.3-0.2,0.6-0.2,0.9c0,0.3-0.1,0.5-0.2,0.8c0,0.3,0,0.6-0.2,0.9c0,0.2,0,0.5,0,0.7
				c-0.2,0.2-0.2,0.4-0.3,0.6c-0.1,0.2-0.3,0.2,0.1,0.3c0.2,0,0.6,0,0.8,0c0.6,0,1.1,0,1.6,0.1c0.3,0,0.5,0,0.7-0.1
				c0.2,0.1,0.6,0,0.8,0c0.2,0,0.4,0,0.7,0c0.1,0,0.2,0,0.4,0c0,0,0,0,0.1,0c0.2,0,0.4,0,0.6,0c0.1,0,0.5-0.1,0.8-0.1c0,0,0,0,0,0
				l6.4-0.1c0.3-0.1,0.7,0,1,0.1c0.1,0,0.1-0.1,0.2-0.1c0.1-0.1,0.2,0,0.3,0c0.3,0.1,0.6,0,1,0.1c0.1,0,0.3,0,0.5-0.1
				c0.3,0,0.6,0,0.8,0c0.8,0.1,1.7,0,2.4,0c0.4,0,0.8-0.1,1.1,0.1c0.4-0.1,0.8,0,1.1-0.1c0.5-0.2,1.1,0.1,1.6-0.2
				c0.2,0.4,1.4,0,1.7,0.1c0.6,0,1.2,0,1.8,0c0.2,0,0.4,0,0.6,0.1c0,0,0,0,0,0c0.2,0,0.5,0.1,0.7,0h0c0.2,0,0.8-0.1,1,0
				c0.3,0.1,0.5-0.3,0.9-0.3C370.6,341.9,370.7,341.6,370.5,341.5z M361,337.1c-0.5-0.1-1,0-1.5,0.1c-1.2,0.1-2.4-0.1-3.6,0
				c-0.6,0.1-1.3-0.1-1.9,0c-0.7,0.1-1.3,0-2,0c-0.6,0-1.1,0-1.7,0c-0.4,0.1-0.7,0-1.1,0.1c-0.3,0-0.6,0-0.9,0
				c0-0.2,0.1-0.3,0.1-0.5c0.1-0.4,0.2-0.7,0.2-1.1c0.1-0.5,0.2-0.8,0.4-1.4c0-0.2,0.1-0.4,0.1-0.5c0.1-0.2,0.1-0.3,0.1-0.5
				c0-0.1,0.1-0.2,0.1-0.3l2.7-8.6c0-0.1,0.2-0.3,0.2-0.4c0-0.2-0.2-0.4-0.1-0.6c0-0.2,0.1-0.3,0.2-0.4c0.2-0.2,0.1-0.5,0.2-0.7
				c0.1-0.4,0.1-1.1,0.4-1.3c-0.1-0.2,0-0.4-0.1-0.5c0.2-0.1,0.2-0.4,0.3-0.5c0.1-0.2,0.1-0.4,0.2-0.5c0.1-0.2-0.1-0.3,0-0.5
				c0.2-0.5,0.4-1,0.5-1.5c0.1-0.5,0.1-1.1,0.3-1.7c0.2-0.6,0.2-1.1,0.5-0.3c0.2,0.7,0.5,1.2,0.7,1.9c0.2,0.5,0.5,1,0.7,1.6
				c0.2,0.5,0.4,1,0.5,1.4c0.1,0.2,0.2,0.4,0.3,0.5c0,0.4,0.1,0.7,0.2,1c0.2,0.5,0.4,1.1,0.5,1.7c0.1,0.3,0.3,0.6,0.2,0.7l2.8,8.1
				c0.2,0.3,0.4,0.7,0.5,1.1c0,0.1,0,0.4,0.2,0.4c-0.1,0.2,0,0.4,0.1,0.5c0.1,0.2,0,0.2,0,0.5c0.2,0.3,0.3,0.7,0.4,1
				c0.2,0.5,0.4,0.9,0.5,1.4c0,0.1,0,0.1,0.1,0.2c-0.1,0-0.1,0-0.2,0C361.8,337,361.4,337.1,361,337.1z"/>
			<path class="st1" d="M260.5,370.1c0-0.3-0.2-0.6-0.3-0.9c-0.1-0.3-0.1-0.7-0.2-1c-0.1-0.3-0.2-0.6-0.4-0.9
				c-0.1-0.3-0.3-0.6-0.5-0.8c-0.2-0.3-0.4-0.5-0.6-0.8c-0.2-0.3-0.4-0.5-0.6-0.8c-0.2-0.2-0.5-0.4-0.8-0.6
				c-0.3-0.2-0.5-0.5-0.7-0.6c-0.3-0.2-0.6-0.4-0.8-0.5c-0.3-0.1-0.6-0.3-0.9-0.4c-0.3-0.1-0.6-0.1-1-0.2c-0.3-0.1-0.6-0.3-0.9-0.3
				c-0.3,0-0.7,0-1,0c-0.3,0-0.6,0.1-1,0.1c0,0,0,0,0,0c-0.3,0-0.7,0-1,0.1c-0.3,0.1-0.7,0.1-1,0.2c-0.3,0.1-0.6,0.2-1,0.3
				c-0.1,0-0.1,0-0.2,0.1c0-0.4,0-0.9,0-1.2c0-0.5,0-1,0-1.4c0-0.6,0-1.1,0-1.7c0-0.1-0.2-0.9-0.2-0.9c0,0,0.1,0,0.1,0
				c0-0.1,0-0.4-0.1-0.4c0.1,0.1,0.1-2.1,0.1-2.4c0-0.3,0-0.5,0-0.7c0-0.3,0-0.3,0-0.5c0-0.4,0-0.9,0-1.3c0-0.8,0-1.7-0.1-2.5
				c0-0.5,0.1-2.6-0.4-2.6c-0.7,0-1.3,0.2-1.9,0.2c-0.1-0.1-0.2,0-0.2,0.1c-0.1,0.1-0.2-0.1-0.2,0c-0.2,0,0,0.2-0.2,0.1
				c-0.2-0.1-0.4-0.1-0.5-0.1c-0.3,0-0.7,0-0.9-0.3c-0.2,0.1-0.5,0-0.8-0.1c-0.6-0.3-0.7,0.5-0.7,1.2c0,0.9,0,1.8-0.2,2.6
				c0.2,0.9,0,1.9,0,2.8c-0.1,0.7,0,1.4,0,2.1c0,0.5-0.1,1-0.1,1.4c0,0.6,0,1.1,0,1.7c-0.2,0.9,0,1.8,0,2.7c0,0.8-0.1,1.5-0.1,2.2
				c0,0.4,0,0.8,0,1.2c0,0.5,0,1,0,1.4c0,0.5,0,0.9,0,1.4c0,0.5,0,2,0,2.9c0,0.2,0,0.3,0,0.5c0,0.3,0,0.6,0,0.9
				c0,0.3,0.1,0.6,0.1,0.9c0.1,0.3,0,0.6,0.1,0.9c0.1,0.3,0.3,0.5,0.4,0.8c0.1,0.3,0.2,0.6,0.3,0.8c0.1,0.3,0.3,0.5,0.5,0.8
				c0.2,0.3,0.4,0.5,0.6,0.7c0.2,0.2,0.3,0.5,0.5,0.7c0.2,0.2,0.5,0.4,0.7,0.6c0.2,0.2,0.4,0.4,0.7,0.6c0.2,0.2,0.5,0.3,0.8,0.5
				c0.2,0.2,0.5,0.4,0.7,0.6c0.3,0.1,0.5,0.2,0.8,0.4c0.3,0.1,0.6,0.2,0.8,0.3c0.3,0.1,0.5,0.4,0.8,0.4c0.3,0.1,0.6,0,0.8,0.1
				c0.3,0,0.6,0.1,0.8,0.2c0.3,0,0.6,0,0.8,0c0.3,0,0.6,0,0.8-0.1c0.3,0,0.5-0.1,0.8-0.2c0.3-0.1,0.6-0.1,0.8-0.2
				c0.3-0.1,0.5-0.3,0.8-0.4c0.3-0.1,0.5-0.3,0.8-0.5c0.3-0.2,0.5-0.3,0.8-0.5c0.2-0.2,0.4-0.5,0.6-0.7c0.2-0.2,0.5-0.3,0.7-0.6
				c0.2-0.2,0.3-0.5,0.5-0.8c0.2-0.3,0.4-0.5,0.6-0.8c0.2-0.3,0.4-0.5,0.6-0.8c0.1-0.3,0.1-0.7,0.3-1c0.1-0.3,0.4-0.6,0.5-0.9
				c0.1-0.3,0.2-0.6,0.2-1c0.1-0.3,0-0.7,0.1-1s0.1-0.7,0.1-1C260.6,370.8,260.6,370.4,260.5,370.1z M254,372.8
				c-0.1,0.3-0.3,0.6-0.5,0.9c-0.2,0.3-0.4,0.6-0.7,0.8c-0.3,0.2-0.6,0.2-0.9,0.3c-0.3,0.1-0.6,0.2-1,0.2c-0.3,0-0.7,0-1-0.1
				c-0.3-0.1-0.6-0.3-0.9-0.5c-0.3-0.2-0.6-0.4-0.8-0.7c-0.2-0.3-0.4-0.6-0.5-0.9c-0.1-0.2-0.1-0.3-0.2-0.5c0-0.3,0.1-0.6,0.1-0.9
				c0-0.3,0-0.5,0-0.8c0.1-0.3,0.3-0.6,0.5-0.9c0.2-0.3,0.5-0.5,0.8-0.7c0.3-0.2,0.6-0.4,0.9-0.6c0.3-0.1,0.7-0.1,1-0.1v-0.2
				c0.4,0,0.7,0.1,1.1,0.2c0.3,0.1,0.7,0.2,1,0.4c0.3,0.2,0.6,0.5,0.8,0.7c0.2,0.3,0.3,0.7,0.4,1c0.1,0.3,0.2,0.7,0.2,1.1
				C254.2,372.1,254.1,372.5,254,372.8z"/>
			<path class="st1" d="M212.7,357.9c0.1,0.5,0,1.1,0.1,1.6c-0.3,0.9,0,1.9,0,2.8c0,0.3,0,0.6,0,0.9c0,0.5,0,0.9,0,1.4
				c0,0.5,0,1.1,0,1.6c0,0.5,0.1,1,0,1.5c0,1,0.1,1.9,0.1,2.9c0,0.4-0.1,0.8,0,1.2c0,0.3,0,0.6,0,0.9c0.1,0.6,0.1,1.4,0,2
				c0,0.7,0.1,1.5,0,2.1c-0.1,0.3-0.1,0.6,0,0.9c-0.1,0.3,0,0.7,0.1,1c0.1,0.4,0.1,0.9,0.2,1.3c0,0,0,0.3,0,0.3c0,0-0.1,0.1-0.1,0.2
				c-0.1,0.6,1.7,0.4,2,0.4c0.4,0,0.7-0.2,1.1,0c0.3,0.1,0.8,0,1.1,0c0.4,0,0.9,0.1,1.3,0c0.2-0.3,0.1-0.7,0.1-1
				c-0.1-0.8,0-1.6-0.1-2.3c0-0.3,0.2-1.5-0.1-1.7c0.2-0.5,0-1.1,0.1-1.6c0.1-0.3,0-0.7,0-1.1c-0.1-0.3,0-0.7-0.1-1.1
				c0-0.8,0-1.6,0-2.4c0-0.2,0-0.3,0-0.5c0.1,0,0.1,0.1,0.2,0.1c0.3,0.2,0.6,0.3,0.9,0.5c0.3,0.2,0.5,0.4,0.8,0.6
				c0.3,0.1,0.6,0.1,1,0.2c0.3,0.1,0.6,0.3,0.9,0.4c0.3,0.1,0.6,0.1,1,0.1c0.3,0,0.6,0.1,1,0.1c0.3,0,0.6,0.1,1,0.1
				c0.3,0,0.6-0.2,1-0.2c0.3-0.1,0.7-0.1,1-0.2c0.3-0.1,0.6-0.2,1-0.3c0.3-0.1,0.6-0.2,1-0.3c0.3-0.1,0.6-0.4,0.9-0.5
				c0.3-0.2,0.7-0.2,0.9-0.4c0.3-0.2,0.5-0.6,0.8-0.8c0.3-0.2,0.6-0.4,0.9-0.6c0.3-0.2,0.6-0.4,0.8-0.7c0.3-0.3,0.4-0.6,0.6-0.9
				c0.2-0.3,0.5-0.5,0.8-0.7c0.2-0.3,0.4-0.6,0.6-0.9c0.2-0.3,0.5-0.5,0.6-0.8c0.2-0.3,0.2-0.7,0.4-1c0.1-0.3,0.3-0.6,0.4-0.9
				c0.1-0.3,0.3-0.6,0.4-1c0.1-0.3,0.1-0.7,0.1-1c0.1-0.3,0.2-0.7,0.2-1c0-0.3-0.1-0.7-0.1-1c0-0.3,0-0.7,0-1c0-0.3-0.1-0.7-0.2-1
				c-0.1-0.3-0.1-0.7-0.2-1c-0.1-0.3-0.2-0.7-0.4-1c-0.1-0.3-0.3-0.7-0.4-1c-0.2-0.3-0.4-0.6-0.6-0.9c-0.2-0.3-0.3-0.7-0.5-1
				c-0.2-0.3-0.4-0.6-0.7-0.9c-0.2-0.3-0.6-0.5-0.9-0.7c-0.3-0.3-0.5-0.6-0.8-0.9c-0.3-0.2-0.7-0.4-1-0.7c-0.3-0.2-0.7-0.4-1-0.6
				c-0.3-0.2-0.7-0.4-1-0.6c-0.4-0.2-0.8-0.2-1.1-0.3c-0.4-0.1-0.7-0.3-1.1-0.4c-0.4-0.1-0.8-0.2-1.1-0.3c-0.4-0.1-0.8,0-1.2-0.1
				c0,0,0.1-0.1,0-0.1c-0.4,0-0.8-0.1-1.2-0.1c-0.4,0-0.8,0.1-1.1,0.2c-0.4,0.1-0.8,0-1.2,0.1c-0.4,0.1-0.7,0.3-1.1,0.4
				c-0.4,0.1-0.8,0.1-1.1,0.3c-0.3,0.2-0.7,0.4-1,0.6c-0.1,0.1-0.2,0.1-0.3,0.2c0-0.1-0.2,0.1-0.2,0.1c-0.1,0.1-0.3,0.2-0.4,0.3
				c-0.3,0.2-0.5,0.6-0.8,0.8c-0.3,0.3-0.6,0.5-0.9,0.7c-0.2,0.3-0.6,0.5-0.8,0.8c-0.2,0.3-0.3,0.7-0.5,1c-0.2,0.3-0.5,0.6-0.6,1
				c-0.2,0.3-0.3,0.7-0.4,1.1c-0.1,0.4-0.2,0.7-0.3,1.1c-0.1,0.3-0.1,0.7-0.2,1.1l-0.2,0.3c0,0.3-0.4,1.2-0.4,1.5
				C212.6,357.4,212.7,357.7,212.7,357.9z M218.5,359.5c-0.1-0.4,0-0.8-0.1-1.1c0,0,0-0.1,0-0.1c0-0.2,0.1-0.4,0.1-0.5
				c0-0.2,0-0.4,0-0.6c0-0.4,0-0.7,0.1-1c0.1-0.4,0.3-0.7,0.5-1c0.2-0.3,0.3-0.7,0.5-1c0.2-0.3,0.4-0.7,0.6-0.9
				c0.3-0.3,0.6-0.5,0.9-0.7c0.3-0.2,0.6-0.5,0.9-0.7c0.3-0.2,0.7-0.3,1-0.4c0.4-0.1,0.7-0.2,1.1-0.2c0.4,0,0.7-0.1,1.1-0.1v0
				c0.4,0,0.8,0.2,1.1,0.3c0.4,0.1,0.8,0.1,1.1,0.3c0.4,0.1,0.7,0.3,1,0.5c0.3,0.2,0.6,0.5,0.9,0.7c0.3,0.2,0.6,0.4,0.9,0.7
				c0.3,0.3,0.5,0.6,0.7,0.9c0.2,0.3,0.4,0.6,0.5,0.9c0.2,0.3,0.2,0.7,0.3,1c0.1,0.3,0.2,0.7,0.3,1c0,0.4-0.1,0.7-0.1,1.1
				c0,0.4,0.1,0.7,0.1,1.1c-0.1,0.4-0.3,0.7-0.4,1c-0.1,0.3-0.3,0.6-0.5,0.9c-0.2,0.3-0.3,0.7-0.5,1c-0.2,0.3-0.5,0.5-0.8,0.7
				c-0.3,0.3-0.5,0.5-0.8,0.7c-0.3,0.2-0.6,0.3-0.9,0.5c-0.3,0.2-0.6,0.4-0.9,0.5c-0.3,0.1-0.7,0.2-1,0.3c-0.3,0.1-0.7,0.1-1,0.1
				c-0.3,0-0.7,0.1-1,0c-0.3,0-0.6-0.2-1-0.3c-0.3-0.1-0.7-0.1-1-0.3c-0.3-0.2-0.6-0.4-0.9-0.6c-0.3-0.2-0.6-0.4-0.8-0.7
				c-0.3-0.3-0.5-0.6-0.7-0.9c-0.2-0.3-0.4-0.6-0.6-0.9c-0.2-0.3-0.3-0.7-0.4-1C218.7,360.2,218.5,359.9,218.5,359.5z"/>
			<path class="st1" d="M298.5,379.5c0-0.3-0.1-0.6-0.1-0.9l0-0.3c0-0.1,0-0.3,0-0.4c0-0.2-0.1-0.5-0.1-0.7
				c-0.1-0.2-0.2-0.5-0.3-0.7c-0.1-0.1-0.1-0.2-0.2-0.4l-0.1-0.4c-0.1-0.2-0.1-0.5-0.2-0.7c-0.1-0.2-0.2-0.4-0.3-0.6
				c-0.1-0.1-0.1-0.2-0.2-0.3c-0.1-0.1-0.1-0.3-0.1-0.4c-0.1-0.2-0.1-0.5-0.3-0.7c-0.1-0.2-0.2-0.4-0.4-0.6
				c-0.1-0.1-0.2-0.2-0.2-0.3c-0.1-0.2-0.3-0.4-0.4-0.5c-0.1-0.1-0.2-0.2-0.2-0.3c-0.1-0.1-0.1-0.2-0.2-0.3
				c-0.1-0.2-0.2-0.5-0.4-0.7c-0.2-0.2-0.3-0.3-0.5-0.5c-0.1-0.1-0.2-0.1-0.3-0.2c-0.1-0.1-0.2-0.2-0.2-0.3
				c-0.2-0.2-0.3-0.4-0.5-0.5c-0.2-0.1-0.4-0.3-0.5-0.4c-0.1-0.1-0.2-0.1-0.3-0.2c-0.3-0.2-0.5-0.4-0.8-0.5
				c-0.2-0.1-0.4-0.2-0.7-0.3l-0.2-0.1c-0.1,0-0.2-0.1-0.3-0.2c-0.2-0.1-0.4-0.2-0.6-0.3c-0.2-0.1-0.4-0.1-0.6-0.1
				c-0.1,0-0.2,0-0.3,0c-0.3-0.1-0.5-0.1-0.8-0.1l-0.1,0c-0.1,0-0.2,0-0.3,0c-0.2,0-0.4-0.1-0.6-0.1c0,0,0,0-0.1,0
				c-0.2,0-0.5,0.1-0.6,0.1c-0.1,0-0.2,0.1-0.3,0.1c-0.1,0-0.2,0-0.3,0c-0.2,0-0.4,0-0.6,0c-0.2,0.1-0.4,0.2-0.6,0.3
				c-0.1,0.1-0.2,0.1-0.3,0.2c-0.1,0-0.2,0.1-0.3,0.1c-0.2,0.1-0.4,0.1-0.6,0.2c-0.1,0-0.2,0.1-0.3,0.1c-0.2,0.1-0.4,0.1-0.6,0.3
				c-0.1,0.1-0.2,0.2-0.3,0.3c0-0.7-0.1-1.6-0.1-2.2l-0.1-3.8c-0.1-0.3,0.1-0.7,0.1-1c0.1-0.1-0.1-0.1-0.1-0.2c-0.1-0.1,0-0.2,0-0.3
				c0.1-0.3,0.1-0.6,0.2-0.9c0.1-0.1,0-0.3-0.1-0.5c0-0.3,0-0.6,0.1-0.8c0.1-0.8,0-1.6,0.1-2.4c0.1-0.4-0.1-0.7,0.1-1.1
				c-0.1-0.3,0-0.6,0-0.8c0.1,0,0.3,0,0.4,0c0.3-0.1,0.6,0.1,0.9,0.1c0.2,0,0.5,0,0.8,0c0.3,0,0.6-0.1,0.9,0
				c0.3,0.1,0.6,0.1,0.9,0.1c0.3,0,0.6,0.2,1,0.2c0.7,0,1.7-0.1,2.4-0.1l3.4-0.1c0.3-0.1,0.6,0.1,0.9,0.1c0.1,0.1,0.1-0.1,0.2-0.1
				c0.1-0.1,0.2,0,0.3,0c0.3,0.1,0.5,0.1,0.8,0.2c0.1,0.1,0.2,0,0.4-0.1c0.2,0,0.5,0,0.7,0.1c0.7,0.1,1.5,0,2.1,0.1l0.1-0.6
				l-0.2-1.5V351l0.1-0.7l-0.2-1.2l0.1-1c-0.4-0.1-0.7,0-1,0.1c-0.8,0.1-1.7-0.2-2.5-0.1c-0.4,0.1-0.9-0.1-1.3-0.1
				c-0.5,0.1-0.9,0-1.4,0c-0.4,0-0.8-0.1-1.2,0c-0.3,0.1-0.5,0-0.8,0.1c-0.8,0.1-1.7-0.3-2.4,0.1c-0.4-0.2-1-0.1-1.4-0.2
				c-0.2-0.1-0.5-0.1-0.7-0.1s-0.5,0-0.8,0c-0.7,0-1.5-0.3-2.2-0.2c-0.1,0-0.1,0-0.2,0c0,0,0-0.1-0.1-0.1c-0.5-0.1-0.9,0-1.4,0
				c-0.4,0-0.8-0.1-1.2,0c-0.6,0-1.1,0-1.7,0c-0.2,0-0.4,0-0.6,0c-0.3,0-0.7,0-1,0.1c0,0,0,0.1,0,0.1c-0.1,0.1-0.1,0.1-0.1,0.2
				c0,0.1,0,0.1,0.1,0.2c0,0,0,0.1,0,0.1c0,0.1,0,0.2,0,0.2c-0.1,0.5-0.1,0.9-0.2,1.3c-0.1,0.3-0.2,0.7-0.1,1
				c-0.2,0.3-0.1,0.6,0,0.8c0.2,0.6-0.1,1.4,0,2c0.1,0.6,0.1,1.4-0.1,2c-0.1,0.3,0,0.6-0.1,0.8c-0.1,0.4,0,0.8,0.1,1.2
				c0.1,0.9-0.2,1.9-0.1,2.8c0.1,0.5-0.1,1-0.1,1.4c0.1,0.5,0,1,0,1.5c0,0.5-0.1,0.9,0,1.4c0.1,0.3,0,0.6,0.1,0.9
				c0.1,0.9-0.3,1.9,0.1,2.7c-0.2,0.5-0.1,1.1-0.2,1.5c-0.1,0.3-0.1,0.6-0.1,0.8c0,0.3,0,0.6,0,0.9c0,0.8-0.3,1.7-0.2,2.5
				c0.1,1-0.2,2.1-0.2,3.1c0,0.8-0.1,1.6-0.1,2.4c0,0.5-0.1,0.9,0.1,1.4c0.1,0,0.4,0,0.8,0l0,0c0.9,0,1.6-0.1,2.2-0.1
				c0.1,0,0.2,0.1,0.3,0.1c0.1,0,0.2-0.1,0.3-0.1c0,0,0.1,0,0.1,0c0.4,0.1,0.7,0,1.2,0c0.4,0,1.2,0.2,1.5,0c0.2-0.1,0.2-0.1,0.2-0.3
				c-0.1-0.2,0-0.3,0-0.5c0-0.2,0-0.3,0-0.5c0-0.1,0-0.1,0-0.2c0-0.1,0.1-0.3,0.1-0.4c0-0.2,0.1-0.4,0.2-0.6c0.1-0.3,0.3-0.6,0.5-1
				c0.2-0.3,0.3-0.6,0.5-0.9c0.2-0.3,0.4-0.5,0.7-0.8l0.2-0.2c0.2-0.2,0.3-0.3,0.5-0.5c0.2-0.2,0.5-0.3,0.8-0.5
				c0.3-0.2,0.6-0.3,0.8-0.3c0.1,0,0.2,0,0.4,0c0.1,0,0.3,0,0.4,0c0.1,0,0.2,0,0.4-0.1c0.2,0,0.3-0.1,0.5-0.1c0.1,0,0.3,0.1,0.4,0.1
				c0.1,0,0.2,0.1,0.4,0.1l0.2,0c0.2,0.1,0.4,0.1,0.6,0.2c0.3,0.1,0.5,0.3,0.7,0.4c0.1,0.1,0.2,0.2,0.3,0.4c0.1,0.1,0.2,0.2,0.3,0.3
				c0.1,0.1,0.2,0.2,0.3,0.3c0.1,0.1,0.3,0.2,0.3,0.3c0.1,0.2,0.3,0.4,0.4,0.6l0.1,0.2c0.1,0.1,0.2,0.3,0.3,0.4
				c0.1,0.2,0.2,0.3,0.3,0.4c0.1,0.1,0.1,0.3,0.1,0.5c0,0.2,0.1,0.4,0.1,0.5l0.1,0.3c0.1,0.2,0.1,0.4,0.1,0.6l0.1,0.4l0.3,0.1
				c0.6,0.3,4.7,0.3,5.2-0.2l0.3-0.3L298.5,379.5z"/>
			<path class="st1" d="M330.8,379.5c-0.2-0.1-0.3-0.5-0.3-0.7c-0.2-0.7-0.5-1.4-0.7-2.1c-0.1-0.5-0.3-1.1-0.5-1.6
				c0-0.2-0.1-0.3-0.1-0.4c0,0,0-0.1,0-0.1c-0.1-0.3-0.2-0.7-0.3-1c-0.1-0.3-0.2-0.7-0.4-1c-0.1-0.3-0.2-0.6-0.3-0.9
				c-0.1-0.3-0.2-0.6-0.3-0.9c-0.2-0.6-0.6-1.1-0.8-1.7c0-0.1,0-0.2-0.1-0.4c-0.1-0.2-0.2-0.3-0.2-0.5c-0.1-0.3-0.3-0.6-0.4-0.9
				c-0.1-0.2-0.2-0.6-0.3-0.8c0-0.1,0-0.3-0.1-0.4c-0.1-0.2-0.2-0.4-0.3-0.6c-0.1-0.3-0.1-0.7-0.2-1c-0.2-0.2-0.2-0.7-0.3-0.8
				c-0.1-0.1-0.1-0.2-0.1-0.4c-0.1-0.1-0.1-0.3-0.2-0.5c0-0.1-0.1-0.3-0.1-0.5c0-0.1,0-0.2-0.1-0.3c-0.3-0.7-0.7-1.3-1-1.9
				c-0.4-0.8-0.7-1.8-0.9-2.7c-0.2-0.6-0.5-1.2-0.7-1.8c-0.1-0.3-0.3-0.6-0.3-1c-0.3-0.3-0.3-0.6-0.4-1c-0.1-0.3-0.1-0.6-0.3-0.9
				c-0.1-0.3-0.2-0.7-0.4-1.1c-0.1-0.3-0.1-0.6-0.2-1c0-0.1-0.1-0.2-0.1-0.4c0-0.2,0-0.4-0.1-0.5c0-0.3-0.1-0.6-0.2-0.9
				c-0.1-0.3-0.2-0.6-0.3-0.9c-0.2-0.3-0.6-0.2-0.9-0.4c-0.3-0.2-0.8,0-1-0.2c-0.4-0.3-1.4,0-1.9,0c-0.8,0-1.6,0.2-2.4,0.3
				c-0.4,0-0.8,0.1-1.2,0.1c-0.3,0-0.5-0.2-0.8-0.2c-0.4,0-0.4,0.3-0.5,0.6c0,0.4-0.3,0.9-0.4,1.3c-0.1,0.3-0.2,0.7-0.4,1
				c-0.1,0.2-0.1,0.5-0.2,0.7c-0.3,0.6-0.5,1.2-0.6,1.8c-0.1,0.7-0.4,1.3-0.6,2c-0.2,0.7-0.3,1.5-0.7,2.2c-0.3,0.5-0.3,1.2-0.5,1.7
				c-0.2,0.7-0.5,1.5-0.6,2.2c-0.3,1.4-1.2,2.7-1.3,4.2c-0.3,0.6-0.5,1.2-0.7,1.9c-0.1,0.3-0.3,0.7-0.3,1.1c0,0.4-0.3,0.8-0.3,1.1
				c0,0.3-0.1,0.6-0.3,0.8c-0.1,0.2-0.1,0.5-0.2,0.8c-0.2,0.4-0.3,1-0.4,1.5c0,0.6-0.3,1.2-0.4,1.9c-0.1,0.5-0.2,0.9-0.3,1.4
				c0,0,0,0.1,0,0.2c0,0.1-0.1,0-0.1,0.1c-0.1,0.3-0.2,0.6-0.2,0.9c0,0.3-0.1,0.5-0.2,0.8c0,0.3,0,0.6-0.2,0.9c0,0.2,0,0.5,0,0.7
				c-0.2,0.2-0.2,0.4-0.3,0.6c-0.1,0.2-0.3,0.2,0.1,0.3c0.2,0,0.6,0,0.8,0c0.6,0,1.1,0,1.6,0.1c0.3,0,0.5,0,0.7-0.1
				c0.2,0.1,0.6,0,0.8,0c0.2,0,0.4,0,0.7,0c0.1,0,0.2,0,0.3,0c0,0,0,0,0.1,0c0.2,0,0.4,0,0.6,0c0.1,0,0.5-0.1,0.8-0.1c0,0,0,0,0,0
				l6.4-0.1c0.3-0.1,0.7,0,1,0.1c0.1,0,0.1-0.1,0.2-0.1c0.1-0.1,0.2,0,0.3,0c0.3,0.1,0.6,0,1,0.1c0.1,0,0.3,0,0.5-0.1
				c0.3,0,0.6,0,0.8,0c0.8,0.1,1.7,0,2.4,0c0.4,0,0.8-0.1,1.1,0.1c0.4-0.1,0.8,0,1.1-0.1c0.5-0.2,1.1,0.1,1.6-0.2
				c0.2,0.4,1.4,0,1.7,0.1c0.6,0,1.2,0,1.8,0c0.2,0,0.4,0,0.6,0.1c0,0,0,0,0,0c0.2,0,0.5,0.1,0.7,0c0,0,0,0,0,0c0.2,0,0.8-0.1,1,0
				c0.3,0.1,0.5-0.3,0.9-0.3C330.9,379.9,331,379.6,330.8,379.5z M321.3,375c-0.5-0.1-1,0-1.5,0.1c-1.2,0.1-2.4-0.1-3.6,0
				c-0.6,0.1-1.3-0.1-1.9,0c-0.7,0.1-1.3,0-2,0c-0.6,0-1.1,0-1.7,0c-0.4,0.1-0.7,0-1.1,0.1c-0.3,0-0.6,0-0.9,0
				c0-0.2,0.1-0.3,0.1-0.5c0.1-0.4,0.2-0.7,0.2-1.1c0.1-0.5,0.2-0.8,0.4-1.4c0-0.2,0.1-0.4,0.1-0.5c0.1-0.2,0.1-0.3,0.1-0.5
				c0-0.1,0.1-0.2,0.1-0.3l2.7-8.6c0-0.1,0.2-0.3,0.2-0.4c0-0.2-0.2-0.4-0.1-0.6c0-0.2,0.1-0.3,0.2-0.4c0.2-0.2,0.1-0.5,0.2-0.7
				c0.1-0.4,0.1-1.1,0.4-1.3c-0.1-0.2,0-0.4-0.1-0.5c0.2-0.1,0.2-0.4,0.3-0.5c0.1-0.2,0.1-0.4,0.2-0.5c0.1-0.2-0.1-0.3,0-0.5
				c0.2-0.5,0.4-1,0.5-1.5c0.1-0.5,0.1-1.1,0.3-1.7c0.2-0.6,0.2-1.1,0.5-0.3c0.2,0.7,0.5,1.2,0.7,1.9c0.2,0.5,0.5,1,0.7,1.6
				c0.2,0.5,0.4,1,0.5,1.4c0.1,0.2,0.2,0.4,0.3,0.5c0,0.4,0.1,0.7,0.2,1c0.2,0.5,0.4,1.1,0.5,1.7c0.1,0.3,0.3,0.6,0.2,0.7l2.8,8.1
				c0.2,0.3,0.4,0.7,0.5,1.1c0,0.1,0,0.4,0.2,0.4c-0.1,0.2,0,0.4,0.1,0.5c0.1,0.2,0,0.2,0,0.5c0.2,0.3,0.3,0.7,0.4,1
				c0.2,0.5,0.4,0.9,0.5,1.4c0,0.1,0,0.1,0.1,0.2c-0.1,0-0.1,0-0.2,0C322.1,375,321.7,375.1,321.3,375z"/>
			<path class="st1" d="M228.2,358c0,1.7-1.4,3.1-3.1,3.1c-1.7,0-3.1-1.4-3.1-3.1c0-1.7,1.4-3.1,3.1-3.1
				C226.8,354.9,228.2,356.3,228.2,358z"/>
			<path class="st1" d="M262.3,361.9c0-0.8-0.1-2-0.1-2.8c0-0.4,0.2-0.7,0.2-1.1c0-0.3-0.1-0.7,0.1-1c0.1-0.3,0-0.7,0-1
				c0-0.3,0-0.6,0-0.9c0-0.3,0.1-0.7,0.1-1c0-0.1-0.1-0.8,0.2-0.9c-0.1-0.3-0.1-0.6-0.1-1c-0.1-0.1,0.1-0.1,0.1-0.2
				c0-0.1-0.2-0.1-0.2-0.2c0.2-0.4,0.2-0.9,0.2-1.3c-0.1-0.5-0.2-1-0.1-1.5c0-0.4-0.1-0.8,0-1.2c0-0.2,0.1-0.3,0-0.5
				c-0.1-0.2,0-0.2,0.2-0.3c0.3-0.2,1.2-0.1,1.6,0c0.5,0,0.8-0.1,1.3,0c0.2,0,0.2-0.1,0.3-0.1c0.2,0.1,0.5,0.2,0.8,0.1
				c0.5,0,1,0,1.5,0c0,0,0,0-0.1,0c0,0,1.1,0,1.2,0c0.2,0.5,0.1,1,0.1,1.4c0,0.8-0.1,1.6-0.1,2.4c0,1.1-0.2,2.2-0.2,3.2
				c0.1,0.8-0.2,1.7-0.2,2.5c0,0.3,0,0.6,0,0.9c0,0.3-0.1,0.6-0.1,0.9c-0.1,0.5,0,1.1-0.2,1.6c0.3,0.9,0,1.9,0.1,2.8
				c0.1,0.3,0,0.6,0.1,0.9c0.1,0.5,0,0.9,0,1.4c0,0.5-0.1,1.1,0,1.6c0.1,0.5-0.1,1-0.1,1.5c0.1,1-0.2,1.9-0.1,2.9
				c0.1,0.4,0.1,0.8,0.1,1.2c-0.1,0.3,0,0.6-0.1,0.9c-0.1,0.6-0.1,1.4-0.1,2c0.1,0.7-0.2,1.5,0,2.1c0.1,0.3,0.2,0.6,0,0.9
				c0.1,0.3-0.1,0.7-0.1,1c-0.1,0.4-0.2,0.9-0.2,1.3c0,0-0.1,0.3-0.1,0.3c0.1,0,0.1,0.1,0.1,0.2c0.1,0.6-1.9,0.4-2.3,0.4
				c-0.4,0-0.8-0.2-1.2,0c-0.4,0.1-0.9,0-1.3,0c-0.5,0-1,0.1-1.5,0c-0.2-0.3-0.2-0.7-0.1-1c0.2-0.8,0.1-1.6,0.1-2.3
				c0.1-0.3-0.3-1.5,0.1-1.7c-0.3-0.5,0.1-1.1-0.2-1.6c-0.1-0.3,0.1-0.7-0.1-1.1c0.2-0.3,0.1-0.7,0.1-1.1c0.1-0.8-0.1-1.6,0.1-2.4
				c0.1-0.2,0.1-0.5,0.1-0.8c-0.1-0.2-0.1-0.3-0.1-0.5c0.1-0.3,0.1-0.6,0.2-1c0-0.1,0.1-0.2,0-0.3c-0.1-0.1-0.2-0.1-0.1-0.2
				c0.1-0.3,0.2-0.7,0.1-1L262.3,361.9z"/>
			<path class="st1" d="M386,320.1c0,1.7-1.4,3.1-3.1,3.1c-1.7,0-3.1-1.4-3.1-3.1c0-1.7,1.4-3.1,3.1-3.1
				C384.6,317,386,318.4,386,320.1z"/>
		</g>
	</g>
</g>
</svg>
