<?xml version="1.0" encoding="utf-8"?>
<!-- Generator: Adobe Illustrator 28.1.0, SVG Export Plug-In . SVG Version: 6.00 Build 0)  -->
<svg version="1.1" id="Слой_1" xmlns:svgjs="http://svgjs.com/svgjs"
	 xmlns="http://www.w3.org/2000/svg" xmlns:xlink="http://www.w3.org/1999/xlink" x="0px" y="0px" viewBox="0 0 512 512"
	 style="enable-background:new 0 0 512 512;" xml:space="preserve">
<style type="text/css">
	.st0{fill:#F9D577;}
</style>
<g>
	<path class="st0" d="M7.3,42.7c-9.6-9.6-9.6-25.6,0-35.5c9.9-9.6,25.6-9.6,35.5,0l213.1,213.5L469.3,7.2c9.6-9.6,25.6-9.6,35.2,0
		c9.9,9.9,9.9,25.9,0,35.5L291.4,255.8l213.1,213.5c9.9,9.6,9.9,25.6,0,35.5c-9.6,9.6-25.6,9.6-35.2,0L255.9,291.4L42.8,504.8
		c-9.9,9.6-25.6,9.6-35.5,0c-9.6-9.9-9.6-25.9,0-35.5l213.1-213.5L7.3,42.7z"/>
</g>
</svg>
