<svg id="Design" xmlns="http://www.w3.org/2000/svg" xmlns:xlink="http://www.w3.org/1999/xlink" viewBox="0 0 80.22 80.21"><defs><style>.cls-1{fill:url(#linear-gradient);}.cls-2{fill:#fff;}</style><linearGradient id="linear-gradient" x1="6.04" y1="75.04" x2="92.72" y2="-11.63" gradientTransform="translate(18.69 -12.29) rotate(22.5)" gradientUnits="userSpaceOnUse"><stop offset="0" stop-color="#fbe18a"/><stop offset="0.21" stop-color="#fcbb45"/><stop offset="0.38" stop-color="#f75274"/><stop offset="0.52" stop-color="#d53692"/><stop offset="0.74" stop-color="#8f39ce"/><stop offset="1" stop-color="#5b4fe9"/></linearGradient></defs><title>19-70</title><circle class="cls-1" cx="40.24" cy="40.84" r="40.11" transform="translate(-12.7 17.78) rotate(-22.5)"/><circle class="cls-2" cx="54.31" cy="26.14" r="3.12"/><path class="cls-2" d="M40.59,27.75A13.09,13.09,0,1,0,53.68,40.84,13.11,13.11,0,0,0,40.59,27.75Zm0,21.48A8.39,8.39,0,1,1,49,40.84,8.39,8.39,0,0,1,40.59,49.23Z" transform="translate(-0.14 -0.73)"/><path class="cls-2" d="M51,67.42H29.76a16,16,0,0,1-16-16V30.23a16,16,0,0,1,16-16H51a16,16,0,0,1,16,16V51.45A16,16,0,0,1,51,67.42ZM29.76,19.27a11,11,0,0,0-11,11V51.45a11,11,0,0,0,11,11H51a11,11,0,0,0,11-11V30.23a11,11,0,0,0-11-11Z" transform="translate(-0.14 -0.73)"/></svg>